# xmcd
#
# Track frame offsets:
#	150
#	12705
#	27027
#	42437
#	56297
#	70657
#	83020
#	96252
#	109865
#	127765
#
# Disc length: 1884 seconds
#
# Revision: 0
# Processed by: cddbd v1.5.2PL0 Copyright (c) Steve Scherf et al.
# Submitted via: dBpowerAMP V4.0
#
DISCID=76075a0a
DTITLE=Johnny Duncan - Pure Country
DYEAR=1998
DGENRE=Country
TTITLE0=Sweet Country Woman
TTITLE1=Stranger
TTITLE2=Thinking Of A Rendezous
TTITLE3=It Could'nt Have Been Any Better
TTITLE4=Come A Little Bit Closer
TTITLE5=A Song In The Night
TTITLE6=She Can Put Her Shoes Under My Bed (Anytime)
TTITLE7=Hello Mexico (And Adios Baby To You)
TTITLE8=Slow Dancing
TTITLE9=The Lady In The Blue Mercedes
EXTD=
EXTT0=
EXTT1=
EXTT2=
EXTT3=
EXTT4=
EXTT5=
EXTT6=
EXTT7=
EXTT8=
EXTT9=
PLAYORDER=
